<?xml version="1.0" encoding="UTF-8"?>
<svg width="100pt" height="100pt" version="1.1" viewBox="0 0 100 100" xmlns="http://www.w3.org/2000/svg">
 <defs>
  <clipPath id="a">
   <path d="m18.512 23h62.977v53h-62.977z"/>
  </clipPath>
 </defs>
 <g clip-path="url(#a)">
  <path d="m20 46.285 20.73-20.734c0.94141-0.98828 2.2461-1.5586 3.6133-1.5781 1.3672-0.015625 2.6836 0.51953 3.6523 1.4844 0.96875 0.96875 1.5039 2.2852 1.4883 3.6523-0.015625 1.3711-0.58594 2.6719-1.5742 3.6172l-12.258 12.234h40.762c2.8008 0 5.0742 2.2734 5.0742 5.0781 0 2.8008-2.2734 5.0742-5.0742 5.0742h-40.648l12.145 12.16c1.8945 1.9961 1.8555 5.1406-0.09375 7.0898-1.9453 1.9453-5.0898 1.9844-7.0859 0.082031l-20.73-20.73c-0.95703-0.94922-1.4922-2.2422-1.4883-3.5898-0.003907-0.042969-0.003907-0.082031 0-0.125-0.003907-0.042969-0.003907-0.085938 0-0.125 0-1.3477 0.53516-2.6367 1.4883-3.5898z" fill="#fff"/>
 </g>
</svg>
