<?xml version="1.0" encoding="UTF-8"?>
<svg width="100pt" height="100pt" version="1.1" viewBox="0 0 100 100" xmlns="http://www.w3.org/2000/svg">
 <path d="m83.602 9.5h-20v-0.19922c0-3.8008-3-6.8008-6.8008-6.8008h-13.602c-3.8008 0-6.8008 3-6.8008 6.8008v0.19922h-20c-2.1016 0-3.8008 1.6992-3.8008 3.8008v3.8008c0 2.1016 1.6992 3.8008 3.8008 3.8008h67.199c2.1016 0 3.8008-1.6992 3.8008-3.8008v-3.8008c0-2.1016-1.6992-3.8008-3.7969-3.8008z" fill="#b2b2b2"/>
 <path d="m78.602 26.102h-57.203c-1.1016 0-1.8984 0.89844-1.8008 2l2.8008 57.898c0.30078 6.3984 5.6016 11.5 12 11.5h31.102c6.3984 0 11.699-5 12-11.5l2.8008-57.898c0.19922-1-0.69922-2-1.6992-2zm-34.801 55.898c0 1.8008-1.3984 3.1992-3.1992 3.1992-1.8008 0-3.1992-1.3984-3.1992-3.1992l-0.003906-40.301c0-1.8008 1.3984-3.1992 3.1992-3.1992 1.8008 0 3.1992 1.3984 3.1992 3.1992zm18.801 0c0 1.8008-1.3984 3.1992-3.1992 3.1992-1.8008 0-3.1992-1.3984-3.1992-3.1992l-0.003906-40.301c0-1.8008 1.3984-3.1992 3.1992-3.1992 1.8008 0 3.1992 1.3984 3.1992 3.1992z" fill="#b2b2b2"/>
</svg>
