<?xml version="1.0" encoding="UTF-8"?>
<svg width="100pt" height="100pt" version="1.1" viewBox="0 0 100 100" xmlns="http://www.w3.org/2000/svg">
 <path d="m21.344 91.551c0.37891 4.7383 4.3984 8.4492 9.1523 8.4492h38.746c4.7344 0 8.7539-3.6953 9.1484-8.4102l5.0977-60.508h-66.988zm41.098-7.457 2.7773-39.703c0.085938-1.2305 1.1484-2.1562 2.3828-2.0703 1.2305 0.085938 2.1562 1.1523 2.0703 2.3828l-2.7773 39.703c-0.082031 1.1758-1.0625 2.0781-2.2227 2.0781-1.2891 0.003906-2.3242-1.1055-2.2305-2.3906zm-14.672-39.598c0-1.2344 1-2.2305 2.2305-2.2305 1.2344 0 2.2305 1 2.2305 2.2305v39.801c0 1.2344-1 2.2305-2.2305 2.2305-1.2344 0-2.2305-1-2.2305-2.2305zm-15.371-2.1758c1.2344-0.085937 2.2969 0.83984 2.3828 2.0703l2.7773 39.703c0.085937 1.2305-0.83984 2.2969-2.0703 2.3828-1.2148 0.089844-2.3008-0.83984-2.3828-2.0703l-2.7773-39.707c-0.085937-1.2266 0.83984-2.293 2.0703-2.3789z" fill="#fff"/>
 <path d="m62.398 2.4531c0-1.3516-1.0977-2.4531-2.4531-2.4531h-19.895c-1.3516 0-2.4531 1.1016-2.4531 2.4531v8.7617h24.801z" fill="#fff"/>
 <path d="m87.559 15.68h-75.117c-3.0156 0-5.4688 2.4531-5.4688 5.4688 0 3.0156 2.4531 5.4688 5.4688 5.4688h75.117c3.0156 0 5.4688-2.4531 5.4688-5.4688 0-3.0156-2.4531-5.4688-5.4688-5.4688z" fill="#fff"/>
</svg>
