<?xml version="1.0" encoding="UTF-8"?>
<svg width="100pt" height="100pt" version="1.1" viewBox="0 0 100 100" xmlns="http://www.w3.org/2000/svg">
 <path d="m50 16.527c-8.8789 0-17.391 3.5273-23.668 9.8047-6.2773 6.2773-9.8047 14.789-9.8047 23.668s3.5273 17.391 9.8047 23.668c6.2773 6.2773 14.789 9.8047 23.668 9.8047s17.391-3.5273 23.668-9.8047c6.2773-6.2773 9.8047-14.789 9.8047-23.668s-3.5273-17.391-9.8047-23.668c-6.2773-6.2773-14.789-9.8047-23.668-9.8047zm14.996 25.547-18.738 18.727c-0.97266 0.96484-2.543 0.96484-3.5156 0l-7.7383-7.7305c-0.42188-0.39062-0.66797-0.9375-0.67969-1.5117-0.007813-0.57812 0.21484-1.1328 0.62109-1.5391 0.41016-0.41016 0.96484-0.63281 1.5391-0.62109 0.57812 0.011718 1.125 0.25391 1.5156 0.67578l6.2539 6.2539c0.0625 0.066406 0.15234 0.10547 0.24609 0.10547s0.18359-0.039063 0.24609-0.10547l17.254-17.25c0.39844-0.39453 0.9375-0.62109 1.4961-0.62109 0.5625 0 1.1016 0.22656 1.5 0.62109 0.39844 0.39844 0.62109 0.9375 0.62109 1.5s-0.22266 1.1016-0.62109 1.4961z" fill="#4da599"/>
</svg>
