<?xml version="1.0" encoding="UTF-8"?>
<svg width="100pt" height="100pt" version="1.1" viewBox="0 0 100 100" xmlns="http://www.w3.org/2000/svg">
 <path d="m50 20.832c7.7344 0 15.152 3.0742 20.625 8.543 5.4688 5.4727 8.543 12.891 8.543 20.625s-3.0742 15.152-8.543 20.625c-5.4727 5.4688-12.891 8.543-20.625 8.543s-15.152-3.0742-20.625-8.543c-5.4688-5.4727-8.543-12.891-8.543-20.625 0.011719-7.7344 3.0859-15.145 8.5547-20.613s12.879-8.543 20.613-8.5547m0-8.332c-9.9453 0-19.484 3.9492-26.516 10.984-7.0352 7.0312-10.984 16.57-10.984 26.516s3.9492 19.484 10.984 26.516c7.0312 7.0352 16.57 10.984 26.516 10.984s19.484-3.9492 26.516-10.984c7.0352-7.0312 10.984-16.57 10.984-26.516s-3.9492-19.484-10.984-26.516c-7.0312-7.0352-16.57-10.984-26.516-10.984z" fill="#b2b2b2"/>
</svg>
