<?xml version="1.0" encoding="UTF-8"?>
<svg width="100pt" height="100pt" version="1.1" viewBox="0 0 100 100" xmlns="http://www.w3.org/2000/svg">
 <path d="m13.992 34.848h72.016c4.9648 0 8.9922 4.9648 8.9922 8.9922v39.375c0 4.9648-4.0273 8.9922-8.9922 8.9922h-72.016c-4.9648 0-8.9922-4.9648-8.9922-8.9922v-39.375c0-4.9648 4.0273-8.9922 8.9922-8.9922z" fill="#b2b2b2"/>
 <path d="m18.625 28.609h62.746c2.0117 0 3.6445-1.6328 3.6445-3.6445 0-2.0117-1.6328-3.6445-3.6445-3.6445h-62.746c-2.0117 0-3.6445 1.6328-3.6445 3.6445 0 2.0117 1.6328 3.6445 3.6445 3.6445z" fill="#b2b2b2"/>
 <path d="m26.012 15.082h47.977c1.5391 0 2.7852-1.6328 2.7852-3.6445s-1.2461-3.6445-2.7852-3.6445h-47.977c-1.5391 0-2.7852 1.6328-2.7852 3.6445s1.2461 3.6445 2.7852 3.6445z" fill="#b2b2b2"/>
</svg>
