<?xml version="1.0" encoding="UTF-8"?>
<svg width="100pt" height="100pt" version="1.1" viewBox="0 0 100 100" xmlns="http://www.w3.org/2000/svg">
 <path d="m51.562 64.258v-18.902c-0.51562-0.03125-1.0391-0.046875-1.5625-0.046875s-1.0469 0.015625-1.5625 0.046875v18.902c-2.6953 0.69531-4.6875 3.1445-4.6875 6.0547 0 2.9062 1.9961 5.3594 4.6875 6.0547v1.7578c0 0.86328 0.69922 1.5625 1.5625 1.5625s1.5625-0.69922 1.5625-1.5625v-1.7578c2.6953-0.69531 4.6875-3.1445 4.6875-6.0547 0-2.9062-1.9961-5.3594-4.6875-6.0547z" fill="#d2d2d2"/>
 <path d="m50 20.312c-8.3906 0-16.461 2.0547-23.648 5.9219l10.961 18.984c3.375-1.7109 7.1406-2.7656 11.125-2.9844v-14.109c0-0.86328 0.69922-1.5625 1.5625-1.5625s1.5625 0.69922 1.5625 1.5625v14.109c3.9805 0.21875 7.7422 1.2695 11.117 2.9805l10.906-19.016c-7.1719-3.8477-15.223-5.8867-23.586-5.8867z" fill="#d2d2d2"/>
 <path d="m14.645 34.957c-9.4414 9.4414-14.645 22-14.645 35.355 0 0.86328 0.69922 1.5625 1.5625 1.5625h18.75c0.86328 0 1.5625-0.69922 1.5625-1.5625 0-9.832 5.0703-18.5 12.734-23.531l-10.961-18.984c-3.2266 2.0078-6.25 4.3984-9.0078 7.1562z" fill="#d2d2d2"/>
 <path d="m85.355 34.957c-2.7734-2.7734-5.8125-5.1758-9.0625-7.1914l-10.906 19.016c7.668 5.0312 12.742 13.699 12.742 23.531 0 0.86328 0.69922 1.5625 1.5625 1.5625h18.75c0.86328 0 1.5625-0.69922 1.5625-1.5625 0-13.355-5.2031-25.91-14.645-35.355z" fill="#d2d2d2"/>
</svg>
