<?xml version="1.0" encoding="UTF-8"?>
<svg width="100pt" height="100pt" version="1.1" viewBox="0 0 100 100" xmlns="http://www.w3.org/2000/svg">
 <path d="m78.125 15.625h6.25c5.1797 0 9.375 4.1992 9.375 9.375v9.375h-87.5v-9.375c0-5.1758 4.1953-9.375 9.375-9.375h6.2539v-6.25c0-1.7227 1.3984-3.125 3.1211-3.125 1.7266 0 3.125 1.4023 3.125 3.125v6.25h43.75v-6.25c0-1.7227 1.3984-3.125 3.125-3.125s3.125 1.4023 3.125 3.125zm15.625 25v43.609c0 5.1758-4.1953 9.375-9.375 9.375h-68.75c-5.1797 0-9.375-4.1992-9.375-9.375v-43.609z" fill="#208b64" fill-rule="evenodd"/>
</svg>
