<?xml version="1.0" encoding="UTF-8"?>
<svg width="100pt" height="100pt" version="1.1" viewBox="0 0 100 100" xmlns="http://www.w3.org/2000/svg">
 <path d="m48.188 27.754c2.3984 0 5.543-0.56641 5.543 1.9219v28.559c0 2.4844-3.1445 1.9219-5.543 1.9219-1.0586 0-1.9219-0.85938-1.9219-1.9219v-28.559c0.003906-1.0625 0.86328-1.9219 1.9219-1.9219zm1.8984 40.441-0.17578 0.003907 0.003906 0.003906v0.17188zm-0.085938-3.8672c3.3672 0 5.3672 4.0938 2.793 6.7617-2.5664 2.6562-5.5938 0-5.5938 0-1.5469-1.5469-1.5469-4.0547 0-5.6016 0.039062 0 1.0156-1.1602 2.8008-1.1602zm0 25.75c22.137 0 40.078-17.945 40.078-40.078 0-22.137-17.941-40.078-40.078-40.078s-40.078 17.941-40.078 40.078 17.941 40.078 40.078 40.078z" fill="#ff1b1b" fill-rule="evenodd"/>
</svg>
