<?xml version="1.0" encoding="UTF-8"?>
<svg width="100pt" height="100pt" version="1.1" viewBox="0 0 100 100" xmlns="http://www.w3.org/2000/svg">
  <defs>
    <linearGradient id="grad1" gradientUnits="userSpaceOnUse" x1="0" y1="100" x2="0" y2="0">
      <stop offset="0%" style="stop-color:#635118;stop-opacity:1" />
      <stop offset="100%" style="stop-color:#ffd23f;stop-opacity:1" />
    </linearGradient>
  </defs>
  <path d="m25.117 77.145v4.5234c0 0.59766 0.23828 1.1758 0.66406 1.5977 0.42188 0.42578 1 0.66406 1.5977 0.66406h45.238c0.59766 0 1.1758-0.23828 1.5977-0.66406 0.42578-0.42188 0.66406-1 0.66406-1.5977v-4.5234c0-6.5977-2.6211-12.926-7.2891-17.594-4.6641-4.668-10.992-7.2891-17.59-7.2891s-12.926 2.6211-17.594 7.2891c-4.6641 4.6641-7.2891 10.996-7.2891 17.594z" fill="url(#grad1)"/>
  <path d="m4.7617 83.93h16.223c-0.25391-0.71875-0.39062-1.4844-0.39062-2.2617v-4.5234c0-5.168 1.3594-10.191 3.8789-14.598-1.8906-0.79688-3.9609-1.2344-6.1406-1.2344-8.7461 0-15.832 7.0898-15.832 15.832v4.5234c0 1.2461 1.0117 2.2617 2.2617 2.2617z" fill="url(#grad1)"/>
  <path d="m81.668 61.309c-2.1797 0-4.2539 0.4375-6.1406 1.2344 2.5195 4.4062 3.8789 9.4336 3.8789 14.598v4.5234c0 0.77734-0.13281 1.543-0.39062 2.2617h16.223c1.25 0 2.2617-1.0117 2.2617-2.2617v-4.5234c0-8.7422-7.0898-15.832-15.832-15.832z" fill="url(#grad1)"/>
  <path d="m26.406 37.555c4.375 4.4609 4.3047 11.621-0.15234 15.992-4.457 4.375-11.617 4.3086-15.992-0.14844-4.375-4.4609-4.3086-11.621 0.15234-15.996 4.457-4.375 11.617-4.3047 15.992 0.15234" fill="url(#grad1)"/>
  <path d="m89.738 37.555c4.375 4.4609 4.3086 11.621-0.15234 15.992-4.457 4.375-11.617 4.3086-15.992-0.14844-4.375-4.4609-4.3047-11.621 0.15234-15.996 4.457-4.375 11.617-4.3047 15.992 0.15234" fill="url(#grad1)"/>
  <path d="m65.633 29.391c1.3867 8.6328-4.4844 16.758-13.117 18.145-8.6328 1.3906-16.758-4.4805-18.148-13.113-1.3867-8.6367 4.4844-16.762 13.117-18.148 8.6328-1.3906 16.758 4.4805 18.148 13.117" fill="url(#grad1)"/>
</svg>
