<?xml version="1.0" encoding="UTF-8"?>
<svg width="128pt" height="128pt" version="1.1" viewBox="0 0 128 128" xmlns="http://www.w3.org/2000/svg">
 <path d="m71.551 46.324c0.90625-1.2773 2.375-2.0352 3.9375-2.0352s3.0312 0.75781 3.9375 2.0352l11.52 16.152 10.008 14.078v0.003906c1 1.4102 1.1719 3.25 0.44922 4.8203-0.72656 1.5703-2.2344 2.6367-3.957 2.793l17.664 19.738c0.24609-1.0859 0.37109-2.1992 0.37109-3.3164v-72.703c0-4.0742-1.6172-7.9805-4.4961-10.859-2.8828-2.8828-6.7891-4.5-10.863-4.5h-66.84l34.727 38.758z" fill="#4da599"/>
 <path d="m115.2 115.51c-0.089844-0.14453-0.19141-0.28125-0.30469-0.41016l-3.6094-4.0312-92.457-103.29c-1.4258-1.5195-3.8086-1.625-5.3633-0.23438-1.5547 1.3906-1.7109 3.7695-0.35938 5.3555l3.5977 4.0312c-2.9609 2.8789-4.6328 6.8281-4.6328 10.957v72.68c0 4.0742 1.6172 7.9805 4.5 10.859 2.8789 2.8828 6.7852 4.5 10.859 4.5h72.68c1.5586-0.003907 3.1094-0.25 4.5938-0.73047l4.4688 4.9922c0.73047 0.81641 1.7734 1.2812 2.8672 1.2812 0.94531-0.003906 1.8555-0.35547 2.5586-0.98438 1.4062-1.2852 1.6641-3.4023 0.60156-4.9805zm-84.66-31.336c-1.8203 0.011719-3.4961-1.0039-4.3281-2.6289-0.83203-1.6211-0.68359-3.5742 0.38672-5.0508l4.5586-6.3984 6.043-8.5h-0.003907c0.91016-1.2773 2.3789-2.0352 3.9453-2.0352 1.5625 0 3.0352 0.75781 3.9414 2.0352l6.1172 8.5508 1.7266 2.418 5.9531-8.4844 17.996 20.098z" fill="#4da599"/>
</svg>
