<?xml version="1.0" encoding="UTF-8"?>
<svg width="100pt" height="100pt" version="1.1" viewBox="0 0 100 100" xmlns="http://www.w3.org/2000/svg">
 <path d="m45.5 20c-8.1602 0.003906-15.828 3.9141-20.625 10.52-4.793 6.6016-6.1367 15.105-3.6133 22.867 2.5234 7.7617 8.6094 13.844 16.371 16.367 7.7656 2.5195 16.266 1.1719 22.867-3.625l12.699 12.699c1.5625 1.5664 4.0977 1.5664 5.6602 0 1.5625-1.5625 1.5625-4.0938 0-5.6562l-12.699-12.699v-0.003906c3.7109-5.0977 5.3945-11.391 4.7344-17.66-0.66016-6.2695-3.6211-12.074-8.3125-16.285-4.6914-4.2148-10.777-6.5391-17.082-6.5234zm0 43c-4.6406 0-9.0938-1.8438-12.375-5.125s-5.125-7.7344-5.125-12.375 1.8438-9.0938 5.125-12.375 7.7344-5.125 12.375-5.125 9.0938 1.8438 12.375 5.125 5.125 7.7344 5.125 12.375c-0.003906 4.6406-1.8516 9.0859-5.1328 12.367s-7.7266 5.1289-12.367 5.1328z" fill="#208b64"/>
</svg>
