<?xml version="1.0" encoding="UTF-8"?>
<svg width="100pt" height="100pt" version="1.1" viewBox="0 0 100 100" xmlns="http://www.w3.org/2000/svg">
 <path d="m58 31c0 4.418-3.582 8-8 8s-8-3.582-8-8 3.582-8 8-8 8 3.582 8 8zm-46 2c0 4.418 3.582 8 8 8s8-3.582 8-8-3.582-8-8-8-8 3.582-8 8zm8.125 10c3.6602 0 6.625 2.9648 6.625 6.625v15.773c0 0.37109-0.20703 0.71094-0.53125 0.88281l-11.25 5.9453c-0.66797 0.35156-1.4688-0.13281-1.4688-0.88672v-21.715c0-3.6602 2.9648-6.625 6.625-6.625zm-9.125 10.5c0-1.3789-1.1211-2.5-2.5-2.5s-2.5 1.1211-2.5 2.5v18.5c0 0.55078 0.44922 1 1 1h3c0.55078 0 1-0.44922 1-1zm69-12.5c4.418 0 8-3.582 8-8s-3.582-8-8-8-8 3.582-8 8 3.582 8 8 8zm-6.75 8.625c0-3.6602 2.9648-6.625 6.625-6.625s6.625 2.9648 6.625 6.625v21.715c0 0.75391-0.80078 1.2383-1.4688 0.88672l-11.25-5.9453c-0.32422-0.17188-0.53125-0.51172-0.53125-0.88281zm18.25 1.375c-1.3789 0-2.5 1.1211-2.5 2.5v18.5c0 0.55078 0.44922 1 1 1h3c0.55078 0 1-0.44922 1-1v-18.5c0-1.3789-1.1211-2.5-2.5-2.5zm-58.5 2c0-6.6289 5.3711-12 12-12h10c6.6289 0 12 5.3711 12 12v6c0 0.55078-0.44922 1-1 1h-5.1562c-0.55469 0-1-0.44922-1-1v-7.6562c0-0.74219-0.60156-1.3438-1.3438-1.3438s-1.3438 0.60156-1.3438 1.3438v7.6562c0 0.55078-0.44531 1-1 1h-12.312c-0.55469 0-1-0.44922-1-1v-7.6562c0-0.74219-0.60156-1.3438-1.3438-1.3438s-1.3438 0.60156-1.3438 1.3438v7.6562c0 0.55078-0.44531 1-1 1h-5.1562c-0.55078 0-1-0.44922-1-1zm5.2539 10c-0.16797 0-0.33203 0.042969-0.47656 0.12109l-18.336 10c-0.90625 0.49609-0.55469 1.8789 0.48047 1.8789h60.156c1.0352 0 1.3867-1.3828 0.48047-1.8789l-18.336-10c-0.14453-0.078125-0.30859-0.12109-0.47656-0.12109z" fill="#208b64" fill-rule="evenodd"/>
</svg>
