<?xml version="1.0" encoding="UTF-8"?>
<svg width="100pt" height="100pt" version="1.1" viewBox="0 0 100 100" xmlns="http://www.w3.org/2000/svg">
 <path d="m50 6.25c-11.602 0-22.73 4.6094-30.938 12.812-8.2031 8.207-12.812 19.336-12.812 30.938s4.6094 22.73 12.812 30.938c8.207 8.2031 19.336 12.812 30.938 12.812s22.73-4.6094 30.938-12.812c8.2031-8.207 12.812-19.336 12.812-30.938-0.011719-11.598-4.625-22.719-12.828-30.922s-19.324-12.816-30.922-12.828zm17.844 61.594c-1.2305 1.207-3.207 1.207-4.4375 0l-14.688-14.719c-1.1797-1.1641-1.8438-2.75-1.8438-4.4062v-26.844c0-1.7266 1.3984-3.125 3.125-3.125s3.125 1.3984 3.125 3.125v26.844l14.719 14.688c1.2188 1.2266 1.2188 3.2109 0 4.4375z" fill="#d2d2d2"/>
</svg>
