<?xml version="1.0" encoding="UTF-8"?>
<svg width="100pt" height="100pt" version="1.1" viewBox="0 0 100 100" xmlns="http://www.w3.org/2000/svg">
 <path d="m97.105 49.996-19.387-11.48 5.5898-21.824-21.824 5.5898-11.48-19.387-11.484 19.383-21.828-5.5898 5.5859 21.824-19.383 11.484 19.387 11.484-5.5898 21.824 21.824-5.5898 11.488 19.387 11.484-19.387 21.824 5.5898-5.5898-21.824zm-38.469 20.836-8.6328 14.57-8.6367-14.57-16.406 4.1992 4.2031-16.402-14.566-8.6367 14.57-8.6289-4.2031-16.402 16.402 4.1992 8.6328-14.566 8.6289 14.566 16.398-4.1953-4.1992 16.402 14.57 8.6289-14.562 8.6328 4.1992 16.398z" fill="#b2b2b2"/>
</svg>
